# xmcd
#
# Track frame offsets: 
#        150
#        28855
#        49672
#        75579
#        89037
#        112347
#        145423
#
# Disc length: 2395 seconds
#
# Revision: 0
# Processed by: cddbd v1.5.2PL0 Copyright (c) Steve Scherf et al.
# Submitted via: ExactAudioCopyFreeDBPlugin 1.0
#
DISCID=62095907
DTITLE=Philip Sayce - Scorched Earth (Vol.1) (Live)
DYEAR=2016
DGENRE=Blues Rock, Classic Rock, Psychedelic Rock, Blues
TTITLE0=Steamroller - Powerful Thing
TTITLE1=Blues Ain’t Nothing But A Good Woman On My Mind
TTITLE2=Standing Around Crying - Aberystwyth
TTITLE3=Beautiful
TTITLE4=A Mystic
TTITLE5=Out Of My Mind
TTITLE6=Alchemy
EXTD=
EXTT0=
EXTT1=
EXTT2=
EXTT3=
EXTT4=
EXTT5=
EXTT6=
PLAYORDER=
